# xmcd
#
# Track frame offsets:
# 150
# 4976
# 9439
# 17414
# 26857
# 32794
# 37339
# 43629
# 47566
# 53997
# 58216
# 63679
# 68696
# 74981
# 80121
# 86876
# 90860
# 95184
# 100531
# 104971
# 110784
# 116626
# 120735
# 127372
# 132658
# 136009
# 139737
# 146014
# 151174
# 154141
# 160711
# 165608
# 170780
# 174610
# 181212
# 188390
# 191724
# 197020
# 201839
# 207199
# 210940
# 216587
# 221615
# 228669
# 234578
# 240781
#
# Disc length: 3270 seconds
#
#
# Revision: 1
# Processed by: cddbd v1.5.1PL0 Copyright (c) Steve Scherf et al.
# Submitted via: FreeRIP 2.80 
#
DISCID=b80cc42e
DTITLE=Various Artist - Der deutsche Schlagermix 4
DYEAR=1900
DGENRE=
TTITLE0=??? - Zucker im Kaffe
TTITLE1=??? - Guildo hat euch lieb
TTITLE2=??? - Er hat ein knallrotes Gummiboot
TTITLE3=??? - Küssen verboten
TTITLE4=??? - Ich bin so gerne bei dir
TTITLE5=??? - Du bist nicht allein
TTITLE6=??? - Dich zu lieben
TTITLE7=??? - In einer Bar in Mexico
TTITLE8=??? - Palma de Mallorca
TTITLE9=??? - Ein erhrenwertes Haus
TTITLE10=??? - Die Fischer von San Juan
TTITLE11=??? - Da kommt Jose,der Straßenmusikant
TTITLE12=??? - Moviestar
TTITLE13=??? - Moviestar
TTITLE14=??? - Aber dich gibt's nur einmal für mich
TTITLE15=??? - Ramona
TTITLE16=??? - Ich hab' die Liebe nicht erfunden
TTITLE17=??? - Ich hab'die Liebe verspielt in Monte Carlo
TTITLE18=??? - Ein Bild kann nicht so lachen wie du
TTITLE19=??? - Auf dem Mond da blühen keine Rosen
TTITLE20=??? - Die Sonne und du
TTITLE21=??? - Du wirst alle Jahre schöner
TTITLE22=??? - Ich wünsch' dir die Hölle auf Erden
TTITLE23=??? - Das Lied der Schlümpfe
TTITLE24=??? - Beiß' nicht gleich in jeden Apfel
TTITLE25=??? - Schöner fremder Mann
TTITLE26=??? - Ja wenn wir alle Englein wären
TTITLE27=??? - Diese Scheibe ist ein Hit
TTITLE28=??? - Im heißen Sand von Rhodos
TTITLE29=??? - I wär am liabsten mit dir ganz alloa
TTITLE30=??? - Wegen dir
TTITLE31=??? - Eine Mark für Charly
TTITLE32=??? - Marmor,Stein und Eisen bricht
TTITLE33=??? - Weil ich ein Mädchen bin
TTITLE34=??? - Hinter den Kulissen von Paris
TTITLE35=??? - Zwei kleine Italiener
TTITLE36=??? - Die Biene Maja
TTITLE37=??? - Aloha Heya He
TTITLE38=??? - Ich zeige dir mein Paradies
TTITLE39=??? - Das ist die Frage aller Fragen
TTITLE40=??? - Nimm den Nächsten Zug
TTITLE41=??? - Santa Lucia-versunken im Meer
TTITLE42=??? - Ding Dong
TTITLE43=??? - Ich hätt' dich sowieso geküßt
TTITLE44=??? - Ich bin verliebt in die Liebe
TTITLE45=??? - Über den Wolken
EXTD=
EXTT0=
EXTT1=
EXTT2=
EXTT3=
EXTT4=
EXTT5=
EXTT6=
EXTT7=
EXTT8=
EXTT9=
EXTT10=
EXTT11=
EXTT12=
EXTT13=
EXTT14=
EXTT15=
EXTT16=
EXTT17=
EXTT18=
EXTT19=
EXTT20=
EXTT21=
EXTT22=
EXTT23=
EXTT24=
EXTT25=
EXTT26=
EXTT27=
EXTT28=
EXTT29=
EXTT30=
EXTT31=
EXTT32=
EXTT33=
EXTT34=
EXTT35=
EXTT36=
EXTT37=
EXTT38=
EXTT39=
EXTT40=
EXTT41=
EXTT42=
EXTT43=
EXTT44=
EXTT45=
PLAYORDER=
